PathFileType	4	(X/Y/Z)	/Users/itak/Documents/Research/Walk-IL/dataset/trc/00227_00009.trc
DataRate	CameraRate	NumFrames	NumMarkers	Units	OrigDataRate	OrigDataStartFrame	OrigNumFrames
100.000000	100.000000	4	53	mm	100.000000	753	861
Frame#	Time	RPSI			LPSI			L3			STRN			T10			C7			CLAV			RBAK			LBAK			LSHO			LUPA			LAEL			LAOL			LWTS			LWPS			LFRA			LIFD			LHPS			LHTS			RSHO			RUPA			RAEL			RAOL			RWTS			RWPS			RFRA			RIFD			RHTS			RHPS			RBHD			LFHD			RFHD			LBHD			LHIP			RHIP			RASI			LASI			LKNE			LTHI			LANK			LTIP			LTOE			LMT1			LMT5			LHEE			RKNE			RTHI			RANK			RTIP			RTOE			RMT1			RMT5			RHEE			
		X1	Y1	Z1	X2	Y2	Z2	X3	Y3	Z3	X4	Y4	Z4	X5	Y5	Z5	X6	Y6	Z6	X7	Y7	Z7	X8	Y8	Z8	X9	Y9	Z9	X10	Y10	Z10	X11	Y11	Z11	X12	Y12	Z12	X13	Y13	Z13	X14	Y14	Z14	X15	Y15	Z15	X16	Y16	Z16	X17	Y17	Z17	X18	Y18	Z18	X19	Y19	Z19	X20	Y20	Z20	X21	Y21	Z21	X22	Y22	Z22	X23	Y23	Z23	X24	Y24	Z24	X25	Y25	Z25	X26	Y26	Z26	X27	Y27	Z27	X28	Y28	Z28	X29	Y29	Z29	X30	Y30	Z30	X31	Y31	Z31	X32	Y32	Z32	X33	Y33	Z33	X34	Y34	Z34	X35	Y35	Z35	X36	Y36	Z36	X37	Y37	Z37	X38	Y38	Z38	X39	Y39	Z39	X40	Y40	Z40	X41	Y41	Z41	X42	Y42	Z42	X43	Y43	Z43	X44	Y44	Z44	X45	Y45	Z45	X46	Y46	Z46	X47	Y47	Z47	X48	Y48	Z48	X49	Y49	Z49	X50	Y50	Z50	X51	Y51	Z51	X52	Y52	Z52	X53	Y53	Z53	

754	7.53	-347.51220703125	1045.293823242188	567.54345703125	-275.3043212890625	1047.123413085938	470.9798278808594	-303.7311096191406	1129.722778320312	502.9762878417969	-92.41215515136719	1306.64111328125	647.2488403320312	-304.5560607910156	1256.130126953125	507.5930786132812	-244.5890197753906	1515.420532226562	544.23193359375	-112.0441284179688	1424.732788085938	635.9039306640625	-353.2492370605469	1379.674560546875	559.2478637695312	-199.6044006347656	1478.349243164062	440.1727600097656	-93.96450805664062	1479.263916015625	445.8283996582031	-71.29930114746094	1361.383544921875	364.6771850585938	-40.11002731323242	1151.551513671875	355.2664794921875	-124.7731170654297	1128.767822265625	353.1009216308594	33.03599166870117	957.44287109375	500.9779968261719	61.14850616455078	925.2279663085938	427.8258056640625	-0.5188695192337036	1051.642456054688	376.7897338867188	78.89588928222656	774.7174072265625	549.3770751953125	89.13827514648438	847.6061401367188	463.4535827636719	91.61363220214844	870.6296997070312	527.8833618164062	-291.8484191894531	1471.332153320312	716.1116943359375	-346.8985595703125	1407.277465820312	759.1766967773438	-399.4312744140625	1130.476440429688	787.7183837890625	-374.5277709960938	1118.154418945312	696.4247436523438	-247.9896392822266	933.653076171875	853.0886840820312	-327.6181640625	912.1644287109375	872.417236328125	-382.2592163085938	1064.220336914062	818.6951904296875	-209.0967254638672	745.9671630859375	883.5941162109375	-213.7393646240234	822.3490600585938	904.0225830078125	-285.7328796386719	814.200439453125	908.5062866210938	-210.7595977783203	1683.92333984375	636.763916015625	16.27171897888184	1675.451904296875	648.2501831054688	-30.28415870666504	1676.098876953125	736.6311645507812	-108.4782485961914	1677.967163085938	540.2371826171875	-113.6206283569336	977.4197998046875	419.4622497558594	-331.7268676757812	1008.440673828125	712.3643188476562	-231.1266174316406	1049.706787109375	738.4339599609375	-60.12367630004883	1020.622497558594	517.1688232421875	-82.87287902832031	503.8965148925781	549.000732421875	-81.29336547851562	642.6434326171875	499.6813049316406	-173.08203125	34.66852951049805	576.1365966796875	-125.7326812744141	274.3518371582031	554.1121215820312	-7.492165088653564	43.08626937866211	726.4066162109375	-88.13802337646484	38.32889938354492	730.130126953125	-50.48441314697266	36.42433166503906	620.6083984375	-250.4048156738281	43.30100250244141	595.015380859375	-249.7780914306641	520.4171752929688	764.9241943359375	-279.283935546875	789.2540283203125	771.6622314453125	-446.8542175292969	77.21018981933594	642.0032348632812	-268.2059020996094	403.6321105957031	746.0964965820312	-264.15673828125	64.42901611328125	738.9605102539062	-277.7108154296875	60.09329986572266	670.803955078125	-381.586669921875	57.27387237548828	729.3680419921875	-458.3939208984375	88.9061279296875	559.6846923828125	
755	7.54	-345.9645080566406	1045.674682617188	570.6845703125	-274.4716186523438	1047.409423828125	473.5604858398438	-302.438720703125	1130.196533203125	505.7061157226562	-90.0250244140625	1306.787109375	648.7484741210938	-303.1001586914062	1256.612426757812	510.2619934082031	-242.4662322998047	1515.788452148438	546.65234375	-109.5229263305664	1424.941772460938	637.5806884765625	-351.227783203125	1380.214477539062	562.3345947265625	-198.0428924560547	1478.68603515625	442.3244934082031	-92.42073822021484	1479.530395507812	447.524658203125	-69.92857360839844	1361.71337890625	366.2962951660156	-38.24221801757812	1151.965576171875	356.9811401367188	-122.8365097045898	1128.8974609375	355.0005798339844	36.11762619018555	958.810302734375	503.1695556640625	64.14022064208984	926.3932495117188	430.1206970214844	1.806659698486328	1052.312866210938	378.7203063964844	83.24104309082031	776.6544799804688	552.4036254882812	92.75563812255859	849.1370239257812	466.0554809570312	95.17796325683594	872.4862060546875	530.3451538085938	-288.7940979003906	1471.79296875	718.84619140625	-343.5526123046875	1407.81982421875	762.294677734375	-396.1259460449219	1131.058227539062	791.3993530273438	-372.0450744628906	1118.633178710938	699.988037109375	-243.5597991943359	934.5775756835938	855.26708984375	-322.8639831542969	912.9276733398438	875.5236206054688	-378.55029296875	1064.823852539062	822.2537231445312	-203.9210662841797	746.9541625976562	885.2794189453125	-208.4571380615234	823.3580932617188	905.7484741210938	-280.2917175292969	815.0233154296875	911.6129150390625	-208.0200500488281	1684.192626953125	638.9793701171875	19.05063629150391	1675.585571289062	649.3971557617188	-27.08418464660645	1676.224487304688	738.0008544921875	-106.2331695556641	1678.186401367188	541.9801635742188	-113.3874893188477	977.2415771484375	420.9698791503906	-329.0294494628906	1009.011474609375	715.4066772460938	-228.2313537597656	1050.156127929688	740.640380859375	-58.89289855957031	1020.808166503906	518.1282958984375	-82.40544891357422	503.8717956542969	549.6483764648438	-80.84113311767578	642.712158203125	500.5455322265625	-173.1082611083984	34.72022247314453	576.1696166992188	-125.5483856201172	274.3998413085938	554.5238647460938	-7.412609100341797	43.10725402832031	726.314697265625	-88.10235595703125	38.336181640625	730.1211547851562	-50.4699821472168	36.41764450073242	620.5676879882812	-250.4647369384766	43.32529067993164	595.044189453125	-244.1752319335938	521.5016479492188	769.178466796875	-275.4466857910156	790.11865234375	775.2511596679688	-437.7904663085938	74.24662017822266	656.8948364257812	-261.5929565429688	404.3296813964844	752.3024291992188	-252.7886810302734	65.1728515625	750.0440063476562	-267.7955627441406	59.66180801391602	682.3626098632812	-370.4041137695312	56.609130859375	743.1758422851562	-451.432861328125	84.39080810546875	574.7514038085938	
756	7.55	-344.4690246582031	1046.039794921875	573.8135986328125	-273.6818542480469	1047.672607421875	476.1289978027344	-301.2054443359375	1130.642700195312	508.4407958984375	-87.70064544677734	1306.920532226562	650.1849975585938	-301.7459716796875	1257.074829101562	512.9100341796875	-240.4359741210938	1516.134521484375	549.0358276367188	-107.0606918334961	1425.141967773438	639.19140625	-349.2852783203125	1380.740356445312	565.4080200195312	-196.5918273925781	1478.999755859375	444.43603515625	-90.99470520019531	1479.7705078125	449.1455688476562	-68.70482635498047	1362.012817382812	367.8375854492188	-36.54743957519531	1152.3388671875	358.5972290039062	-121.0778427124023	1129.009155273438	356.8321533203125	38.99309539794922	960.007080078125	505.1265258789062	66.89553833007812	927.4483642578125	432.1553649902344	3.928691387176514	1052.919067382812	380.4977111816406	87.22686767578125	778.33740234375	554.9854736328125	96.08369445800781	850.504638671875	468.3008117675781	98.4833984375	874.101806640625	532.4823608398438	-285.77001953125	1472.237060546875	721.557373046875	-340.2498168945312	1408.337280273438	765.4336547851562	-392.867431640625	1131.610717773438	794.9661254882812	-369.6187744140625	1119.133911132812	703.41455078125	-239.2686920166016	935.3921508789062	857.3306884765625	-318.2736511230469	913.6029052734375	878.4486083984375	-374.9019165039062	1065.39111328125	825.6650390625	-198.9834594726562	747.8016357421875	886.7947998046875	-203.3880157470703	824.2233276367188	907.3328857421875	-275.0409240722656	815.7154541015625	914.5861206054688	-205.3119964599609	1684.458374023438	641.1387329101562	21.77392196655273	1675.662231445312	650.5149536132812	-23.93400573730469	1676.283569335938	739.3348388671875	-104.0356903076172	1678.3955078125	543.6885986328125	-113.2103958129883	977.0498046875	422.4275207519531	-326.3503112792969	1009.590270996094	718.4297485351562	-225.3363342285156	1050.594848632812	742.8035278320312	-57.68697738647461	1020.990051269531	519.0429077148438	-81.88156890869141	503.8554992675781	550.3685913085938	-80.34246063232422	642.7733764648438	501.4490051269531	-173.1342468261719	34.77399063110352	576.203857421875	-125.3100280761719	274.4449768066406	554.9804077148438	-7.35009241104126	43.12406539916992	726.2485961914062	-88.06630706787109	38.34455490112305	730.109619140625	-50.45976257324219	36.41629791259766	620.5367431640625	-250.5234222412109	43.35255432128906	595.0764770507812	-238.6518402099609	522.5802001953125	773.3756103515625	-271.5386047363281	790.9783935546875	778.7593383789062	-428.6342468261719	71.58959197998047	671.1932373046875	-254.9812622070312	405.0171203613281	758.2946166992188	-241.4047241210938	65.90966033935547	760.1549682617188	-257.9035034179688	59.36011505126953	693.0089111328125	-359.1120910644531	56.05941390991211	756.1542358398438	-444.4334106445312	80.36204528808594	589.294189453125	
757	7.56	-343.0219116210938	1046.389892578125	576.9254760742188	-272.9285278320312	1047.91943359375	478.6854858398438	-300.0286254882812	1131.06005859375	511.1788635253906	-85.43141174316406	1307.042114257812	651.5615234375	-300.4795532226562	1257.514770507812	515.5411376953125	-238.4954528808594	1516.46044921875	551.3880004882812	-104.6553573608398	1425.332641601562	640.7409057617188	-347.4152526855469	1381.247314453125	568.4714965820312	-195.2543334960938	1479.293212890625	446.5135803222656	-89.68434906005859	1479.987548828125	450.6911926269531	-67.62800598144531	1362.281494140625	369.3009033203125	-35.02456665039062	1152.668579101562	360.1179809570312	-119.5007553100586	1129.1044921875	358.6014404296875	41.64977264404297	961.0293579101562	506.8554992675781	69.41219329833984	928.3834228515625	433.9326171875	5.839748382568359	1053.456787109375	382.1215515136719	90.844482421875	779.75732421875	557.1328735351562	99.11065673828125	851.6995849609375	470.1940307617188	101.5473785400391	875.4778442382812	534.2991943359375	-282.7709045410156	1472.65673828125	724.2421875	-336.985107421875	1408.826171875	768.5994873046875	-389.6483154296875	1132.124633789062	798.4237670898438	-367.2376708984375	1119.650024414062	706.7119140625	-235.1220397949219	936.0925903320312	859.29345703125	-313.8615417480469	914.1820678710938	881.1992797851562	-371.3123168945312	1065.910278320312	828.9339599609375	-194.2842712402344	748.5120849609375	888.1747436523438	-198.5463562011719	824.9441528320312	908.8055419921875	-270.010498046875	816.2838745117188	917.3614501953125	-202.6466979980469	1684.716674804688	643.249267578125	24.43780899047852	1675.6923828125	651.6014404296875	-20.83646583557129	1676.2900390625	740.630126953125	-101.8862915039062	1678.592407226562	545.3603515625	-113.0466232299805	976.8955078125	423.8183898925781	-323.6913757324219	1010.167602539062	721.429931640625	-222.4491424560547	1051.021606445312	744.9215698242188	-56.5020637512207	1021.162902832031	519.9180297851562	-81.3182373046875	503.8430786132812	551.1453247070312	-79.80957794189453	642.825927734375	502.3817749023438	-173.1603546142578	34.8275260925293	576.2386474609375	-125.0238494873047	274.4857482910156	555.4706420898438	-7.303420066833496	43.13690185546875	726.204833984375	-88.03169250488281	38.35469436645508	730.095458984375	-50.45190811157227	36.41871643066406	620.5135498046875	-250.5786590576172	43.38188552856445	595.1102905273438	-233.2123260498047	523.6477661132812	777.5284423828125	-267.5652770996094	791.831787109375	782.1857299804688	-419.4119873046875	69.19110107421875	684.8697509765625	-248.3863983154297	405.6876831054688	764.07177734375	-230.0112915039062	66.63027954101562	769.2448120117188	-248.0539855957031	59.18634414672852	702.68310546875	-347.6901550292969	55.57079315185547	768.2586059570312	-437.4193420410156	76.78102874755859	603.2822875976562	
